<?xml version="1.0" encoding="UTF-8" standalone="no"?>
<svg
   width="840"
   height="840"
   viewBox="0 0 840 840"
   version="1.1"
   id="svg183"
   xmlns="http://www.w3.org/2000/svg"
   xmlns:svg="http://www.w3.org/2000/svg">
  <defs
     id="defs183" />
  <rect
     x="-11.428572"
     y="-9.1428576"
     width="840"
     height="840"
     fill="#000000"
     id="rect1" />
  <text
     x="749.89368"
     y="597.37836"
     text-anchor="middle"
     font-family="Arial, Helvetica, sans-serif"
     font-size="26.1269px"
     fill="#f3f4f6"
     id="text173-8"
     transform="scale(0.8490323,1.1778115)"
     style="stroke-width:1.45149">kW</text>
  <circle
     cx="420"
     cy="420"
     r="394"
     fill="none"
     stroke="#e5e7eb"
     stroke-width="6"
     id="circle1" />
  <circle
     cx="420"
     cy="420"
     r="384"
     fill="none"
     stroke="#6b7280"
     stroke-width="2"
     id="circle2" />
  <path
     d="M 168.27,671.73 A 356,356 0 0 1 420,64"
     fill="none"
     stroke="#22c55e"
     stroke-linecap="butt"
     stroke-width="40"
     style="fill:none;stroke-width:40;stroke-linecap:butt;stroke-linejoin:round"
     stroke-linejoin="round"
     id="path2" />
  <path
     d="m 420,64 a 356,356 0 0 1 62.2,5.476"
     fill="none"
     stroke="#fbbf24"
     stroke-linecap="butt"
     stroke-width="40"
     style="fill:none;stroke-width:40;stroke-linecap:butt;stroke-linejoin:round"
     stroke-linejoin="round"
     id="path3" />
  <path
     d="m 482.2,69.476 a 356,356 0 0 1 25.312,5.448"
     fill="none"
     stroke="#fbbf24"
     stroke-linecap="butt"
     stroke-width="40"
     style="fill:none;stroke-width:40;stroke-linecap:butt;stroke-linejoin:round"
     stroke-linejoin="round"
     id="path4" />
  <path
     d="m 507.512,74.924 a 356,356 0 0 1 19.115,5.419"
     fill="none"
     stroke="#fbbf24"
     stroke-linecap="butt"
     stroke-width="40"
     style="fill:none;stroke-width:40;stroke-linecap:butt;stroke-linejoin:round"
     stroke-linejoin="round"
     id="path5" />
  <path
     d="m 526.627,80.343 a 356,356 0 0 1 15.859,5.392"
     fill="none"
     stroke="#fbbf24"
     stroke-linecap="butt"
     stroke-width="40"
     style="fill:none;stroke-width:40;stroke-linecap:butt;stroke-linejoin:round"
     stroke-linejoin="round"
     id="path6" />
  <path
     d="m 542.486,85.735 a 356,356 0 0 1 13.749,5.364"
     fill="none"
     stroke="#fbbf24"
     stroke-linecap="butt"
     stroke-width="40"
     style="fill:none;stroke-width:40;stroke-linecap:butt;stroke-linejoin:round"
     stroke-linejoin="round"
     id="path7" />
  <path
     d="m 556.235,91.099 a 356,356 0 0 1 12.229,5.336"
     fill="none"
     stroke="#fbbf24"
     stroke-linecap="butt"
     stroke-width="40"
     style="fill:none;stroke-width:40;stroke-linecap:butt;stroke-linejoin:round"
     stroke-linejoin="round"
     id="path8" />
  <path
     d="m 568.464,96.435 a 356,356 0 0 1 11.062,5.308"
     fill="none"
     stroke="#fbbf24"
     stroke-linecap="butt"
     stroke-width="40"
     style="fill:none;stroke-width:40;stroke-linecap:butt;stroke-linejoin:round"
     stroke-linejoin="round"
     id="path9" />
  <path
     d="m 579.526,101.743 a 356,356 0 0 1 10.127,5.281"
     fill="none"
     stroke="#fbbf24"
     stroke-linecap="butt"
     stroke-width="40"
     style="fill:none;stroke-width:40;stroke-linecap:butt;stroke-linejoin:round"
     stroke-linejoin="round"
     id="path10" />
  <path
     d="m 589.653,107.024 a 356,356 0 0 1 9.352,5.253"
     fill="none"
     stroke="#fbbf24"
     stroke-linecap="butt"
     stroke-width="40"
     style="fill:none;stroke-width:40;stroke-linecap:butt;stroke-linejoin:round"
     stroke-linejoin="round"
     id="path11" />
  <path
     d="m 599.005,112.277 a 356,356 0 0 1 8.696,5.226"
     fill="none"
     stroke="#fbbf24"
     stroke-linecap="butt"
     stroke-width="40"
     style="fill:none;stroke-width:40;stroke-linecap:butt;stroke-linejoin:round"
     stroke-linejoin="round"
     id="path12" />
  <path
     d="m 607.701,117.503 a 356,356 0 0 1 8.13,5.198"
     fill="none"
     stroke="#fbbf24"
     stroke-linecap="butt"
     stroke-width="40"
     style="fill:none;stroke-width:40;stroke-linecap:butt;stroke-linejoin:round"
     stroke-linejoin="round"
     id="path13" />
  <path
     d="m 615.831,122.701 a 356,356 0 0 1 7.633,5.172"
     fill="none"
     stroke="#fbbf24"
     stroke-linecap="butt"
     stroke-width="40"
     style="fill:none;stroke-width:40;stroke-linecap:butt;stroke-linejoin:round"
     stroke-linejoin="round"
     id="path14" />
  <path
     d="m 623.464,127.873 a 356,356 0 0 1 7.193,5.144"
     fill="none"
     stroke="#fbbf24"
     stroke-linecap="butt"
     stroke-width="40"
     style="fill:none;stroke-width:40;stroke-linecap:butt;stroke-linejoin:round"
     stroke-linejoin="round"
     id="path15" />
  <path
     d="m 630.657,133.017 a 356,356 0 0 1 6.799,5.116"
     fill="none"
     stroke="#fbbf24"
     stroke-linecap="butt"
     stroke-width="40"
     style="fill:none;stroke-width:40;stroke-linecap:butt;stroke-linejoin:round"
     stroke-linejoin="round"
     id="path16" />
  <path
     d="m 637.456,138.133 a 356,356 0 0 1 6.443,5.09"
     fill="none"
     stroke="#fbbf24"
     stroke-linecap="butt"
     stroke-width="40"
     style="fill:none;stroke-width:40;stroke-linecap:butt;stroke-linejoin:round"
     stroke-linejoin="round"
     id="path17" />
  <path
     d="m 643.899,143.223 a 356,356 0 0 1 6.117,5.063"
     fill="none"
     stroke="#fbbf24"
     stroke-linecap="butt"
     stroke-width="40"
     style="fill:none;stroke-width:40;stroke-linecap:butt;stroke-linejoin:round"
     stroke-linejoin="round"
     id="path18" />
  <path
     d="m 650.016,148.286 a 356,356 0 0 1 5.821,5.036"
     fill="none"
     stroke="#fbbf24"
     stroke-linecap="butt"
     stroke-width="40"
     style="fill:none;stroke-width:40;stroke-linecap:butt;stroke-linejoin:round"
     stroke-linejoin="round"
     id="path19" />
  <path
     d="m 655.837,153.322 a 356,356 0 0 1 5.546,5.009"
     fill="none"
     stroke="#fbbf24"
     stroke-linecap="butt"
     stroke-width="40"
     style="fill:none;stroke-width:40;stroke-linecap:butt;stroke-linejoin:round"
     stroke-linejoin="round"
     id="path20" />
  <path
     d="m 661.383,158.331 a 356,356 0 0 1 5.291,4.983"
     fill="none"
     stroke="#fbbf24"
     stroke-linecap="butt"
     stroke-width="40"
     style="fill:none;stroke-width:40;stroke-linecap:butt;stroke-linejoin:round"
     stroke-linejoin="round"
     id="path21" />
  <path
     d="m 666.674,163.314 a 356,356 0 0 1 5.056,4.956"
     fill="none"
     stroke="#fbbf24"
     stroke-linecap="butt"
     stroke-width="40"
     style="fill:none;stroke-width:40;stroke-linecap:butt;stroke-linejoin:round"
     stroke-linejoin="round"
     id="path22" />
  <path
     d="m 671.73,168.27 a 356,356 0 0 1 4.835,4.929"
     fill="none"
     stroke="#fbbf24"
     stroke-linecap="butt"
     stroke-width="40"
     style="fill:none;stroke-width:40;stroke-linecap:butt;stroke-linejoin:round"
     stroke-linejoin="round"
     id="path23" />
  <path
     d="m 676.565,173.199 a 356,356 0 0 1 4.628,4.903"
     fill="none"
     stroke="#fbbf24"
     stroke-linecap="butt"
     stroke-width="40"
     style="fill:none;stroke-width:40;stroke-linecap:butt;stroke-linejoin:round"
     stroke-linejoin="round"
     id="path24" />
  <path
     d="m 681.193,178.102 a 356,356 0 0 1 4.433,4.877"
     fill="none"
     stroke="#fbbf24"
     stroke-linecap="butt"
     stroke-width="40"
     style="fill:none;stroke-width:40;stroke-linecap:butt;stroke-linejoin:round"
     stroke-linejoin="round"
     id="path25" />
  <path
     d="m 685.626,182.979 a 356,356 0 0 1 4.25,4.851"
     fill="none"
     stroke="#fbbf24"
     stroke-linecap="butt"
     stroke-width="40"
     style="fill:none;stroke-width:40;stroke-linecap:butt;stroke-linejoin:round"
     stroke-linejoin="round"
     id="path26" />
  <path
     d="m 689.876,187.83 a 356,356 0 0 1 4.076,4.824"
     fill="none"
     stroke="#fbbf24"
     stroke-linecap="butt"
     stroke-width="40"
     style="fill:none;stroke-width:40;stroke-linecap:butt;stroke-linejoin:round"
     stroke-linejoin="round"
     id="path27" />
  <path
     d="m 693.952,192.654 a 356,356 0 0 1 3.912,4.798"
     fill="none"
     stroke="#fbbf24"
     stroke-linecap="butt"
     stroke-width="40"
     style="fill:none;stroke-width:40;stroke-linecap:butt;stroke-linejoin:round"
     stroke-linejoin="round"
     id="path28" />
  <path
     d="m 697.864,197.452 a 356,356 0 0 1 3.756,4.772"
     fill="none"
     stroke="#fbbf24"
     stroke-linecap="butt"
     stroke-width="40"
     style="fill:none;stroke-width:40;stroke-linecap:butt;stroke-linejoin:round"
     stroke-linejoin="round"
     id="path29" />
  <path
     d="m 701.62,202.224 a 356,356 0 0 1 3.607,4.746"
     fill="none"
     stroke="#fbbf24"
     stroke-linecap="butt"
     stroke-width="40"
     style="fill:none;stroke-width:40;stroke-linecap:butt;stroke-linejoin:round"
     stroke-linejoin="round"
     id="path30" />
  <path
     d="m 705.227,206.97 a 356,356 0 0 1 3.465,4.72"
     fill="none"
     stroke="#fbbf24"
     stroke-linecap="butt"
     stroke-width="40"
     style="fill:none;stroke-width:40;stroke-linecap:butt;stroke-linejoin:round"
     stroke-linejoin="round"
     id="path31" />
  <path
     d="m 708.692,211.69 a 356,356 0 0 1 3.33,4.695"
     fill="none"
     stroke="#fbbf24"
     stroke-linecap="butt"
     stroke-width="40"
     style="fill:none;stroke-width:40;stroke-linecap:butt;stroke-linejoin:round"
     stroke-linejoin="round"
     id="path32" />
  <path
     d="m 712.022,216.385 a 356,356 0 0 1 3.201,4.669"
     fill="none"
     stroke="#fbbf24"
     stroke-linecap="butt"
     stroke-width="40"
     style="fill:none;stroke-width:40;stroke-linecap:butt;stroke-linejoin:round"
     stroke-linejoin="round"
     id="path33" />
  <path
     d="m 715.223,221.054 a 356,356 0 0 1 3.076,4.643"
     fill="none"
     stroke="#fbbf24"
     stroke-linecap="butt"
     stroke-width="40"
     style="fill:none;stroke-width:40;stroke-linecap:butt;stroke-linejoin:round"
     stroke-linejoin="round"
     id="path34" />
  <path
     d="m 718.299,225.697 a 356,356 0 0 1 2.958,4.618"
     fill="none"
     stroke="#fbbf24"
     stroke-linecap="butt"
     stroke-width="40"
     style="fill:none;stroke-width:40;stroke-linecap:butt;stroke-linejoin:round"
     stroke-linejoin="round"
     id="path35" />
  <path
     d="m 721.257,230.315 a 356,356 0 0 1 2.843,4.592"
     fill="none"
     stroke="#fbbf24"
     stroke-linecap="butt"
     stroke-width="40"
     style="fill:none;stroke-width:40;stroke-linecap:butt;stroke-linejoin:round"
     stroke-linejoin="round"
     id="path36" />
  <path
     d="m 724.1,234.907 a 356,356 0 0 1 2.733,4.567"
     fill="none"
     stroke="#fbbf24"
     stroke-linecap="butt"
     stroke-width="40"
     style="fill:none;stroke-width:40;stroke-linecap:butt;stroke-linejoin:round"
     stroke-linejoin="round"
     id="path37" />
  <path
     d="m 726.833,239.474 a 356,356 0 0 1 2.627,4.541"
     fill="none"
     stroke="#fbbf24"
     stroke-linecap="butt"
     stroke-width="40"
     style="fill:none;stroke-width:40;stroke-linecap:butt;stroke-linejoin:round"
     stroke-linejoin="round"
     id="path38" />
  <path
     d="m 729.46,244.015 a 356,356 0 0 1 2.525,4.517"
     fill="none"
     stroke="#fbbf24"
     stroke-linecap="butt"
     stroke-width="40"
     style="fill:none;stroke-width:40;stroke-linecap:butt;stroke-linejoin:round"
     stroke-linejoin="round"
     id="path39" />
  <path
     d="m 731.985,248.532 a 356,356 0 0 1 2.427,4.491"
     fill="none"
     stroke="#fbbf24"
     stroke-linecap="butt"
     stroke-width="40"
     style="fill:none;stroke-width:40;stroke-linecap:butt;stroke-linejoin:round"
     stroke-linejoin="round"
     id="path40" />
  <path
     d="m 734.412,253.023 a 356,356 0 0 1 2.331,4.466"
     fill="none"
     stroke="#fbbf24"
     stroke-linecap="butt"
     stroke-width="40"
     style="fill:none;stroke-width:40;stroke-linecap:butt;stroke-linejoin:round"
     stroke-linejoin="round"
     id="path41" />
  <path
     d="m 736.743,257.489 a 356,356 0 0 1 2.24,4.441"
     fill="none"
     stroke="#fbbf24"
     stroke-linecap="butt"
     stroke-width="40"
     style="fill:none;stroke-width:40;stroke-linecap:butt;stroke-linejoin:round"
     stroke-linejoin="round"
     id="path42" />
  <path
     d="m 738.983,261.93 a 356,356 0 0 1 2.15,4.417"
     fill="none"
     stroke="#fbbf24"
     stroke-linecap="butt"
     stroke-width="40"
     style="fill:none;stroke-width:40;stroke-linecap:butt;stroke-linejoin:round"
     stroke-linejoin="round"
     id="path43" />
  <path
     d="m 741.133,266.347 a 356,356 0 0 1 2.065,4.391"
     fill="none"
     stroke="#fbbf24"
     stroke-linecap="butt"
     stroke-width="40"
     style="fill:none;stroke-width:40;stroke-linecap:butt;stroke-linejoin:round"
     stroke-linejoin="round"
     id="path44" />
  <path
     d="m 743.198,270.738 a 356,356 0 0 1 1.981,4.367"
     fill="none"
     stroke="#fbbf24"
     stroke-linecap="butt"
     stroke-width="40"
     style="fill:none;stroke-width:40;stroke-linecap:butt;stroke-linejoin:round"
     stroke-linejoin="round"
     id="path45" />
  <path
     d="m 745.179,275.105 a 356,356 0 0 1 1.9,4.342"
     fill="none"
     stroke="#fbbf24"
     stroke-linecap="butt"
     stroke-width="40"
     style="fill:none;stroke-width:40;stroke-linecap:butt;stroke-linejoin:round"
     stroke-linejoin="round"
     id="path46" />
  <path
     d="m 747.079,279.447 a 356,356 0 0 1 1.822,4.318"
     fill="none"
     stroke="#fbbf24"
     stroke-linecap="butt"
     stroke-width="40"
     style="fill:none;stroke-width:40;stroke-linecap:butt;stroke-linejoin:round"
     stroke-linejoin="round"
     id="path47" />
  <path
     d="m 748.901,283.765 a 356,356 0 0 1 1.746,4.293"
     fill="none"
     stroke="#fbbf24"
     stroke-linecap="butt"
     stroke-width="40"
     style="fill:none;stroke-width:40;stroke-linecap:butt;stroke-linejoin:round"
     stroke-linejoin="round"
     id="path48" />
  <path
     d="m 750.647,288.058 a 356,356 0 0 1 1.671,4.268"
     fill="none"
     stroke="#fbbf24"
     stroke-linecap="butt"
     stroke-width="40"
     style="fill:none;stroke-width:40;stroke-linecap:butt;stroke-linejoin:round"
     stroke-linejoin="round"
     id="path49" />
  <path
     d="m 752.318,292.326 a 356,356 0 0 1 1.6,4.245"
     fill="none"
     stroke="#fbbf24"
     stroke-linecap="butt"
     stroke-width="40"
     style="fill:none;stroke-width:40;stroke-linecap:butt;stroke-linejoin:round"
     stroke-linejoin="round"
     id="path50" />
  <path
     d="m 753.918,296.571 a 356,356 0 0 1 1.53,4.22"
     fill="none"
     stroke="#fbbf24"
     stroke-linecap="butt"
     stroke-width="40"
     style="fill:none;stroke-width:40;stroke-linecap:butt;stroke-linejoin:round"
     stroke-linejoin="round"
     id="path51" />
  <path
     d="m 755.448,300.791 a 356,356 0 0 1 1.461,4.196"
     fill="none"
     stroke="#fbbf24"
     stroke-linecap="butt"
     stroke-width="40"
     style="fill:none;stroke-width:40;stroke-linecap:butt;stroke-linejoin:round"
     stroke-linejoin="round"
     id="path52" />
  <path
     d="m 756.909,304.987 a 356,356 0 0 1 1.396,4.171"
     fill="none"
     stroke="#fbbf24"
     stroke-linecap="butt"
     stroke-width="40"
     style="fill:none;stroke-width:40;stroke-linecap:butt;stroke-linejoin:round"
     stroke-linejoin="round"
     id="path53" />
  <path
     d="m 758.305,309.158 a 356,356 0 0 1 1.331,4.148"
     fill="none"
     stroke="#fbbf24"
     stroke-linecap="butt"
     stroke-width="40"
     style="fill:none;stroke-width:40;stroke-linecap:butt;stroke-linejoin:round"
     stroke-linejoin="round"
     id="path54" />
  <path
     d="m 759.636,313.306 a 356,356 0 0 1 1.268,4.124"
     fill="none"
     stroke="#fbbf24"
     stroke-linecap="butt"
     stroke-width="40"
     style="fill:none;stroke-width:40;stroke-linecap:butt;stroke-linejoin:round"
     stroke-linejoin="round"
     id="path55" />
  <path
     d="m 760.904,317.43 a 356,356 0 0 1 1.207,4.1"
     fill="none"
     stroke="#fbbf24"
     stroke-linecap="butt"
     stroke-width="40"
     style="fill:none;stroke-width:40;stroke-linecap:butt;stroke-linejoin:round"
     stroke-linejoin="round"
     id="path56" />
  <path
     d="m 762.111,321.53 a 356,356 0 0 1 1.147,4.076"
     fill="none"
     stroke="#fbbf24"
     stroke-linecap="butt"
     stroke-width="40"
     style="fill:none;stroke-width:40;stroke-linecap:butt;stroke-linejoin:round"
     stroke-linejoin="round"
     id="path57" />
  <path
     d="m 763.258,325.606 a 356,356 0 0 1 1.088,4.053"
     fill="none"
     stroke="#fbbf24"
     stroke-linecap="butt"
     stroke-width="40"
     style="fill:none;stroke-width:40;stroke-linecap:butt;stroke-linejoin:round"
     stroke-linejoin="round"
     id="path58" />
  <path
     d="m 764.346,329.659 a 356,356 0 0 1 1.032,4.028"
     fill="none"
     stroke="#fbbf24"
     stroke-linecap="butt"
     stroke-width="40"
     style="fill:none;stroke-width:40;stroke-linecap:butt;stroke-linejoin:round"
     stroke-linejoin="round"
     id="path59" />
  <path
     d="m 765.378,333.687 a 356,356 0 0 1 0.977,4.006"
     fill="none"
     stroke="#fbbf24"
     stroke-linecap="butt"
     stroke-width="40"
     style="fill:none;stroke-width:40;stroke-linecap:butt;stroke-linejoin:round"
     stroke-linejoin="round"
     id="path60" />
  <path
     d="m 766.355,337.693 a 356,356 0 0 1 0.922,3.981"
     fill="none"
     stroke="#fbbf24"
     stroke-linecap="butt"
     stroke-width="40"
     style="fill:none;stroke-width:40;stroke-linecap:butt;stroke-linejoin:round"
     stroke-linejoin="round"
     id="path61" />
  <path
     d="m 767.277,341.674 a 356,356 0 0 1 0.869,3.959"
     fill="none"
     stroke="#fbbf24"
     stroke-linecap="butt"
     stroke-width="40"
     style="fill:none;stroke-width:40;stroke-linecap:butt;stroke-linejoin:round"
     stroke-linejoin="round"
     id="path62" />
  <path
     d="m 768.146,345.633 a 356,356 0 0 1 1.584,7.846"
     fill="none"
     stroke="#f87171"
     stroke-linecap="butt"
     stroke-width="40"
     style="fill:none;stroke-width:40;stroke-linecap:butt;stroke-linejoin:round"
     stroke-linejoin="round"
     id="path63" />
  <path
     d="m 769.73,353.479 a 356,356 0 0 1 1.386,7.755"
     fill="none"
     stroke="#f87171"
     stroke-linecap="butt"
     stroke-width="40"
     style="fill:none;stroke-width:40;stroke-linecap:butt;stroke-linejoin:round"
     stroke-linejoin="round"
     id="path64" />
  <path
     d="m 771.116,361.234 a 356,356 0 0 1 1.197,7.661"
     fill="none"
     stroke="#f87171"
     stroke-linecap="butt"
     stroke-width="40"
     style="fill:none;stroke-width:40;stroke-linecap:butt;stroke-linejoin:round"
     stroke-linejoin="round"
     id="path65" />
  <path
     d="m 772.313,368.895 a 356,356 0 0 1 1.015,7.571"
     fill="none"
     stroke="#f87171"
     stroke-linecap="butt"
     stroke-width="40"
     style="fill:none;stroke-width:40;stroke-linecap:butt;stroke-linejoin:round"
     stroke-linejoin="round"
     id="path66" />
  <path
     d="m 773.328,376.466 a 356,356 0 0 1 0.842,7.479"
     fill="none"
     stroke="#f87171"
     stroke-linecap="butt"
     stroke-width="40"
     style="fill:none;stroke-width:40;stroke-linecap:butt;stroke-linejoin:round"
     stroke-linejoin="round"
     id="path67" />
  <path
     d="m 774.17,383.945 a 356,356 0 0 1 0.674,7.39"
     fill="none"
     stroke="#f87171"
     stroke-linecap="butt"
     stroke-width="40"
     style="fill:none;stroke-width:40;stroke-linecap:butt;stroke-linejoin:round"
     stroke-linejoin="round"
     id="path68" />
  <path
     d="m 774.844,391.335 a 356,356 0 0 1 0.514,7.299"
     fill="none"
     stroke="#f87171"
     stroke-linecap="butt"
     stroke-width="40"
     style="fill:none;stroke-width:40;stroke-linecap:butt;stroke-linejoin:round"
     stroke-linejoin="round"
     id="path69" />
  <path
     d="m 775.358,398.634 a 356,356 0 0 1 0.36,7.21"
     fill="none"
     stroke="#f87171"
     stroke-linecap="butt"
     stroke-width="40"
     style="fill:none;stroke-width:40;stroke-linecap:butt;stroke-linejoin:round"
     stroke-linejoin="round"
     id="path70" />
  <path
     d="m 775.718,405.844 a 356,356 0 0 1 0.213,7.122"
     fill="none"
     stroke="#f87171"
     stroke-linecap="butt"
     stroke-width="40"
     style="fill:none;stroke-width:40;stroke-linecap:butt;stroke-linejoin:round"
     stroke-linejoin="round"
     id="path71" />
  <path
     d="M 775.931,412.966 A 356,356 0 0 1 776,420"
     fill="none"
     stroke="#f87171"
     stroke-linecap="butt"
     stroke-width="40"
     style="fill:none;stroke-width:40;stroke-linecap:butt;stroke-linejoin:round"
     stroke-linejoin="round"
     id="path72" />
  <path
     d="m 776,420 a 356,356 0 0 1 -0.068,6.946"
     fill="none"
     stroke="#f87171"
     stroke-linecap="butt"
     stroke-width="40"
     style="fill:none;stroke-width:40;stroke-linecap:butt;stroke-linejoin:round"
     stroke-linejoin="round"
     id="path73" />
  <path
     d="m 775.932,426.946 a 356,356 0 0 1 -0.2,6.86"
     fill="none"
     stroke="#f87171"
     stroke-linecap="butt"
     stroke-width="40"
     style="fill:none;stroke-width:40;stroke-linecap:butt;stroke-linejoin:round"
     stroke-linejoin="round"
     id="path74" />
  <path
     d="m 775.732,433.806 a 356,356 0 0 1 -0.327,6.774"
     fill="none"
     stroke="#f87171"
     stroke-linecap="butt"
     stroke-width="40"
     style="fill:none;stroke-width:40;stroke-linecap:butt;stroke-linejoin:round"
     stroke-linejoin="round"
     id="path75" />
  <path
     d="m 775.405,440.58 a 356,356 0 0 1 -0.451,6.687"
     fill="none"
     stroke="#f87171"
     stroke-linecap="butt"
     stroke-width="40"
     style="fill:none;stroke-width:40;stroke-linecap:butt;stroke-linejoin:round"
     stroke-linejoin="round"
     id="path76" />
  <path
     d="m 774.954,447.267 a 356,356 0 0 1 -0.569,6.603"
     fill="none"
     stroke="#f87171"
     stroke-linecap="butt"
     stroke-width="40"
     style="fill:none;stroke-width:40;stroke-linecap:butt;stroke-linejoin:round"
     stroke-linejoin="round"
     id="path77" />
  <path
     d="m 774.385,453.87 a 356,356 0 0 1 -0.683,6.518"
     fill="none"
     stroke="#f87171"
     stroke-linecap="butt"
     stroke-width="40"
     style="fill:none;stroke-width:40;stroke-linecap:butt;stroke-linejoin:round"
     stroke-linejoin="round"
     id="path78" />
  <path
     d="m 773.702,460.388 a 356,356 0 0 1 -0.795,6.435"
     fill="none"
     stroke="#f87171"
     stroke-linecap="butt"
     stroke-width="40"
     style="fill:none;stroke-width:40;stroke-linecap:butt;stroke-linejoin:round"
     stroke-linejoin="round"
     id="path79" />
  <path
     d="m 772.907,466.823 a 356,356 0 0 1 -0.9,6.351"
     fill="none"
     stroke="#f87171"
     stroke-linecap="butt"
     stroke-width="40"
     style="fill:none;stroke-width:40;stroke-linecap:butt;stroke-linejoin:round"
     stroke-linejoin="round"
     id="path80" />
  <path
     d="m 772.007,473.174 a 356,356 0 0 1 -1.005,6.268"
     fill="none"
     stroke="#f87171"
     stroke-linecap="butt"
     stroke-width="40"
     style="fill:none;stroke-width:40;stroke-linecap:butt;stroke-linejoin:round"
     stroke-linejoin="round"
     id="path81" />
  <path
     d="m 771.002,479.442 a 356,356 0 0 1 -1.103,6.186"
     fill="none"
     stroke="#f87171"
     stroke-linecap="butt"
     stroke-width="40"
     style="fill:none;stroke-width:40;stroke-linecap:butt;stroke-linejoin:round"
     stroke-linejoin="round"
     id="path82" />
  <path
     d="m 769.899,485.628 a 356,356 0 0 1 -1.201,6.104"
     fill="none"
     stroke="#f87171"
     stroke-linecap="butt"
     stroke-width="40"
     style="fill:none;stroke-width:40;stroke-linecap:butt;stroke-linejoin:round"
     stroke-linejoin="round"
     id="path83" />
  <path
     d="m 768.698,491.732 a 356,356 0 0 1 -1.293,6.023"
     fill="none"
     stroke="#f87171"
     stroke-linecap="butt"
     stroke-width="40"
     style="fill:none;stroke-width:40;stroke-linecap:butt;stroke-linejoin:round"
     stroke-linejoin="round"
     id="path84" />
  <path
     d="m 767.405,497.755 a 356,356 0 0 1 -1.384,5.942"
     fill="none"
     stroke="#f87171"
     stroke-linecap="butt"
     stroke-width="40"
     style="fill:none;stroke-width:40;stroke-linecap:butt;stroke-linejoin:round"
     stroke-linejoin="round"
     id="path85" />
  <path
     d="m 766.021,503.697 a 356,356 0 0 1 -1.47,5.863"
     fill="none"
     stroke="#f87171"
     stroke-linecap="butt"
     stroke-width="40"
     style="fill:none;stroke-width:40;stroke-linecap:butt;stroke-linejoin:round"
     stroke-linejoin="round"
     id="path86" />
  <path
     d="m 764.551,509.56 a 356,356 0 0 1 -1.556,5.783"
     fill="none"
     stroke="#f87171"
     stroke-linecap="butt"
     stroke-width="40"
     style="fill:none;stroke-width:40;stroke-linecap:butt;stroke-linejoin:round"
     stroke-linejoin="round"
     id="path87" />
  <path
     d="m 762.995,515.343 a 356,356 0 0 1 -1.637,5.704"
     fill="none"
     stroke="#f87171"
     stroke-linecap="butt"
     stroke-width="40"
     style="fill:none;stroke-width:40;stroke-linecap:butt;stroke-linejoin:round"
     stroke-linejoin="round"
     id="path88" />
  <path
     d="m 761.358,521.047 a 356,356 0 0 1 -1.715,5.625"
     fill="none"
     stroke="#f87171"
     stroke-linecap="butt"
     stroke-width="40"
     style="fill:none;stroke-width:40;stroke-linecap:butt;stroke-linejoin:round"
     stroke-linejoin="round"
     id="path89" />
  <path
     d="m 759.643,526.672 a 356,356 0 0 1 -1.793,5.548"
     fill="none"
     stroke="#f87171"
     stroke-linecap="butt"
     stroke-width="40"
     style="fill:none;stroke-width:40;stroke-linecap:butt;stroke-linejoin:round"
     stroke-linejoin="round"
     id="path90" />
  <path
     d="m 757.85,532.22 a 356,356 0 0 1 -1.866,5.47"
     fill="none"
     stroke="#f87171"
     stroke-linecap="butt"
     stroke-width="40"
     style="fill:none;stroke-width:40;stroke-linecap:butt;stroke-linejoin:round"
     stroke-linejoin="round"
     id="path91" />
  <path
     d="m 755.984,537.69 a 356,356 0 0 1 -1.939,5.394"
     fill="none"
     stroke="#f87171"
     stroke-linecap="butt"
     stroke-width="40"
     style="fill:none;stroke-width:40;stroke-linecap:butt;stroke-linejoin:round"
     stroke-linejoin="round"
     id="path92" />
  <path
     d="m 754.045,543.084 a 356,356 0 0 1 -2.007,5.317"
     fill="none"
     stroke="#f87171"
     stroke-linecap="butt"
     stroke-width="40"
     style="fill:none;stroke-width:40;stroke-linecap:butt;stroke-linejoin:round"
     stroke-linejoin="round"
     id="path93" />
  <path
     d="m 752.038,548.401 a 356,356 0 0 1 -2.075,5.242"
     fill="none"
     stroke="#f87171"
     stroke-linecap="butt"
     stroke-width="40"
     style="fill:none;stroke-width:40;stroke-linecap:butt;stroke-linejoin:round"
     stroke-linejoin="round"
     id="path94" />
  <path
     d="m 749.963,553.643 a 356,356 0 0 1 -2.14,5.166"
     fill="none"
     stroke="#f87171"
     stroke-linecap="butt"
     stroke-width="40"
     style="fill:none;stroke-width:40;stroke-linecap:butt;stroke-linejoin:round"
     stroke-linejoin="round"
     id="path95" />
  <path
     d="m 747.823,558.809 a 356,356 0 0 1 -2.203,5.092"
     fill="none"
     stroke="#f87171"
     stroke-linecap="butt"
     stroke-width="40"
     style="fill:none;stroke-width:40;stroke-linecap:butt;stroke-linejoin:round"
     stroke-linejoin="round"
     id="path96" />
  <path
     d="m 745.62,563.901 a 356,356 0 0 1 -2.264,5.017"
     fill="none"
     stroke="#f87171"
     stroke-linecap="butt"
     stroke-width="40"
     style="fill:none;stroke-width:40;stroke-linecap:butt;stroke-linejoin:round"
     stroke-linejoin="round"
     id="path97" />
  <path
     d="m 743.356,568.918 a 356,356 0 0 1 -2.323,4.944"
     fill="none"
     stroke="#f87171"
     stroke-linecap="butt"
     stroke-width="40"
     style="fill:none;stroke-width:40;stroke-linecap:butt;stroke-linejoin:round"
     stroke-linejoin="round"
     id="path98" />
  <path
     d="m 741.033,573.862 a 356,356 0 0 1 -2.38,4.871"
     fill="none"
     stroke="#f87171"
     stroke-linecap="butt"
     stroke-width="40"
     style="fill:none;stroke-width:40;stroke-linecap:butt;stroke-linejoin:round"
     stroke-linejoin="round"
     id="path99" />
  <path
     d="m 738.653,578.733 a 356,356 0 0 1 -2.435,4.798"
     fill="none"
     stroke="#f87171"
     stroke-linecap="butt"
     stroke-width="40"
     style="fill:none;stroke-width:40;stroke-linecap:butt;stroke-linejoin:round"
     stroke-linejoin="round"
     id="path100" />
  <path
     d="m 736.218,583.531 a 356,356 0 0 1 -2.49,4.726"
     fill="none"
     stroke="#f87171"
     stroke-linecap="butt"
     stroke-width="40"
     style="fill:none;stroke-width:40;stroke-linecap:butt;stroke-linejoin:round"
     stroke-linejoin="round"
     id="path101" />
  <path
     d="m 733.728,588.257 a 356,356 0 0 1 -2.541,4.655"
     fill="none"
     stroke="#f87171"
     stroke-linecap="butt"
     stroke-width="40"
     style="fill:none;stroke-width:40;stroke-linecap:butt;stroke-linejoin:round"
     stroke-linejoin="round"
     id="path102" />
  <path
     d="m 731.187,592.912 a 356,356 0 0 1 -2.591,4.583"
     fill="none"
     stroke="#f87171"
     stroke-linecap="butt"
     stroke-width="40"
     style="fill:none;stroke-width:40;stroke-linecap:butt;stroke-linejoin:round"
     stroke-linejoin="round"
     id="path103" />
  <path
     d="m 728.596,597.495 a 356,356 0 0 1 -2.64,4.513"
     fill="none"
     stroke="#f87171"
     stroke-linecap="butt"
     stroke-width="40"
     style="fill:none;stroke-width:40;stroke-linecap:butt;stroke-linejoin:round"
     stroke-linejoin="round"
     id="path104" />
  <path
     d="m 725.956,602.008 a 356,356 0 0 1 -2.687,4.443"
     fill="none"
     stroke="#f87171"
     stroke-linecap="butt"
     stroke-width="40"
     style="fill:none;stroke-width:40;stroke-linecap:butt;stroke-linejoin:round"
     stroke-linejoin="round"
     id="path105" />
  <path
     d="m 723.269,606.451 a 356,356 0 0 1 -2.732,4.373"
     fill="none"
     stroke="#f87171"
     stroke-linecap="butt"
     stroke-width="40"
     style="fill:none;stroke-width:40;stroke-linecap:butt;stroke-linejoin:round"
     stroke-linejoin="round"
     id="path106" />
  <path
     d="m 720.537,610.824 a 356,356 0 0 1 -2.777,4.304"
     fill="none"
     stroke="#f87171"
     stroke-linecap="butt"
     stroke-width="40"
     style="fill:none;stroke-width:40;stroke-linecap:butt;stroke-linejoin:round"
     stroke-linejoin="round"
     id="path107" />
  <path
     d="m 717.76,615.128 a 356,356 0 0 1 -2.819,4.235"
     fill="none"
     stroke="#f87171"
     stroke-linecap="butt"
     stroke-width="40"
     style="fill:none;stroke-width:40;stroke-linecap:butt;stroke-linejoin:round"
     stroke-linejoin="round"
     id="path108" />
  <path
     d="m 714.941,619.363 a 356,356 0 0 1 -2.86,4.168"
     fill="none"
     stroke="#f87171"
     stroke-linecap="butt"
     stroke-width="40"
     style="fill:none;stroke-width:40;stroke-linecap:butt;stroke-linejoin:round"
     stroke-linejoin="round"
     id="path109" />
  <path
     d="m 712.081,623.531 a 356,356 0 0 1 -2.9,4.099"
     fill="none"
     stroke="#f87171"
     stroke-linecap="butt"
     stroke-width="40"
     style="fill:none;stroke-width:40;stroke-linecap:butt;stroke-linejoin:round"
     stroke-linejoin="round"
     id="path110" />
  <path
     d="m 709.181,627.63 a 356,356 0 0 1 -2.939,4.033"
     fill="none"
     stroke="#f87171"
     stroke-linecap="butt"
     stroke-width="40"
     style="fill:none;stroke-width:40;stroke-linecap:butt;stroke-linejoin:round"
     stroke-linejoin="round"
     id="path111" />
  <path
     d="m 706.242,631.663 a 356,356 0 0 1 -2.975,3.966"
     fill="none"
     stroke="#f87171"
     stroke-linecap="butt"
     stroke-width="40"
     style="fill:none;stroke-width:40;stroke-linecap:butt;stroke-linejoin:round"
     stroke-linejoin="round"
     id="path112" />
  <path
     d="m 703.267,635.629 a 356,356 0 0 1 -3.012,3.9"
     fill="none"
     stroke="#f87171"
     stroke-linecap="butt"
     stroke-width="40"
     style="fill:none;stroke-width:40;stroke-linecap:butt;stroke-linejoin:round"
     stroke-linejoin="round"
     id="path113" />
  <path
     d="m 700.255,639.529 a 356,356 0 0 1 -3.046,3.834"
     fill="none"
     stroke="#f87171"
     stroke-linecap="butt"
     stroke-width="40"
     style="fill:none;stroke-width:40;stroke-linecap:butt;stroke-linejoin:round"
     stroke-linejoin="round"
     id="path114" />
  <path
     d="m 697.209,643.363 a 356,356 0 0 1 -3.08,3.769"
     fill="none"
     stroke="#f87171"
     stroke-linecap="butt"
     stroke-width="40"
     style="fill:none;stroke-width:40;stroke-linecap:butt;stroke-linejoin:round"
     stroke-linejoin="round"
     id="path115" />
  <path
     d="m 694.129,647.132 a 356,356 0 0 1 -3.112,3.705"
     fill="none"
     stroke="#f87171"
     stroke-linecap="butt"
     stroke-width="40"
     style="fill:none;stroke-width:40;stroke-linecap:butt;stroke-linejoin:round"
     stroke-linejoin="round"
     id="path116" />
  <path
     d="m 691.017,650.837 a 356,356 0 0 1 -3.143,3.64"
     fill="none"
     stroke="#f87171"
     stroke-linecap="butt"
     stroke-width="40"
     style="fill:none;stroke-width:40;stroke-linecap:butt;stroke-linejoin:round"
     stroke-linejoin="round"
     id="path117" />
  <path
     d="m 687.874,654.477 a 356,356 0 0 1 -3.173,3.576"
     fill="none"
     stroke="#f87171"
     stroke-linecap="butt"
     stroke-width="40"
     style="fill:none;stroke-width:40;stroke-linecap:butt;stroke-linejoin:round"
     stroke-linejoin="round"
     id="path118" />
  <path
     d="m 684.701,658.053 a 356,356 0 0 1 -3.202,3.513"
     fill="none"
     stroke="#f87171"
     stroke-linecap="butt"
     stroke-width="40"
     style="fill:none;stroke-width:40;stroke-linecap:butt;stroke-linejoin:round"
     stroke-linejoin="round"
     id="path119" />
  <path
     d="m 681.499,661.566 a 356,356 0 0 1 -3.23,3.45"
     fill="none"
     stroke="#f87171"
     stroke-linecap="butt"
     stroke-width="40"
     style="fill:none;stroke-width:40;stroke-linecap:butt;stroke-linejoin:round"
     stroke-linejoin="round"
     id="path120" />
  <path
     d="m 678.269,665.016 a 356,356 0 0 1 -3.256,3.388"
     fill="none"
     stroke="#f87171"
     stroke-linecap="butt"
     stroke-width="40"
     style="fill:none;stroke-width:40;stroke-linecap:butt;stroke-linejoin:round"
     stroke-linejoin="round"
     id="path121" />
  <path
     d="m 675.013,668.404 a 356,356 0 0 1 -3.283,3.326"
     fill="none"
     stroke="#f87171"
     stroke-linecap="butt"
     stroke-width="40"
     style="fill:none;stroke-width:40;stroke-linecap:butt;stroke-linejoin:round"
     stroke-linejoin="round"
     id="path122" />
  <line
     x1="169.68401"
     y1="670.31598"
     x2="155.54201"
     y2="684.45801"
     stroke="#ffffff"
     stroke-width="4"
     id="line122" />
  <line
     x1="104.341"
     y1="580.23602"
     x2="86.507004"
     y2="589.289"
     stroke="#ffffff"
     stroke-width="4"
     id="line123" />
  <line
     x1="67.606003"
     y1="453.67999"
     x2="47.696999"
     y2="455.58301"
     stroke="#ffffff"
     stroke-width="4"
     id="line124" />
  <line
     x1="92.946999"
     y1="284.53"
     x2="74.469002"
     y2="276.87601"
     stroke="#ffffff"
     stroke-width="4"
     id="line125" />
  <line
     x1="420"
     y1="66"
     x2="420"
     y2="46"
     stroke="#ffffff"
     stroke-width="4"
     id="line126" />
  <line
     x1="710.38202"
     y1="217.52901"
     x2="726.78699"
     y2="206.09"
     stroke="#ffffff"
     stroke-width="4"
     id="line127" />
  <line
     x1="766.19"
     y1="346.05099"
     x2="785.74902"
     y2="341.87299"
     stroke="#ffffff"
     stroke-width="4"
     id="line128" />
  <line
     x1="772.39398"
     y1="453.67999"
     x2="792.30298"
     y2="455.58301"
     stroke="#ffffff"
     stroke-width="4"
     id="line129" />
  <line
     x1="752.16901"
     y1="542.39203"
     x2="770.935"
     y2="549.30701"
     stroke="#ffffff"
     stroke-width="4"
     id="line130" />
  <line
     x1="716.08698"
     y1="614.03198"
     x2="732.815"
     y2="624.99402"
     stroke="#ffffff"
     stroke-width="4"
     id="line131" />
  <line
     x1="670.31598"
     y1="670.31598"
     x2="684.45801"
     y2="684.45801"
     stroke="#ffffff"
     stroke-width="4"
     id="line132" />
  <line
     x1="149.22"
     y1="660.255"
     x2="140.244"
     y2="668.21899"
     stroke="#ffffff"
     stroke-width="2.5"
     id="line133" />
  <line
     x1="135.021"
     y1="643.229"
     x2="125.575"
     y2="650.62903"
     stroke="#ffffff"
     stroke-width="2.5"
     id="line134" />
  <line
     x1="121.537"
     y1="624.85101"
     x2="111.643"
     y2="631.64099"
     stroke="#ffffff"
     stroke-width="2.5"
     id="line135" />
  <line
     x1="108.887"
     y1="605.07501"
     x2="98.573997"
     y2="611.211"
     stroke="#ffffff"
     stroke-width="2.5"
     id="line136" />
  <line
     x1="86.652"
     y1="561.14899"
     x2="75.601997"
     y2="565.828"
     stroke="#ffffff"
     stroke-width="2.5"
     id="line137" />
  <line
     x1="77.394997"
     y1="536.90198"
     x2="66.038002"
     y2="540.77698"
     stroke="#ffffff"
     stroke-width="2.5"
     id="line138" />
  <line
     x1="69.641998"
     y1="511.069"
     x2="58.028"
     y2="514.08801"
     stroke="#ffffff"
     stroke-width="2.5"
     id="line139" />
  <line
     x1="63.631001"
     y1="483.599"
     x2="51.817001"
     y2="485.707"
     stroke="#ffffff"
     stroke-width="2.5"
     id="line140" />
  <line
     x1="58.016998"
     y1="423.543"
     x2="46.018002"
     y2="423.66"
     stroke="#ffffff"
     stroke-width="2.5"
     id="line141" />
  <line
     x1="59.174999"
     y1="390.85101"
     x2="47.214001"
     y2="389.88501"
     stroke="#ffffff"
     stroke-width="2.5"
     id="line142" />
  <line
     x1="63.646"
     y1="356.31201"
     x2="51.834"
     y2="354.20099"
     stroke="#ffffff"
     stroke-width="2.5"
     id="line143" />
  <line
     x1="72.123001"
     y1="319.87"
     x2="60.591999"
     y2="316.55099"
     stroke="#ffffff"
     stroke-width="2.5"
     id="line144" />
  <line
     x1="105.325"
     y1="241.049"
     x2="94.892998"
     y2="235.117"
     stroke="#ffffff"
     stroke-width="2.5"
     id="line145" />
  <line
     x1="133.634"
     y1="198.554"
     x2="124.141"
     y2="191.213"
     stroke="#ffffff"
     stroke-width="2.5"
     id="line146" />
  <line
     x1="174.549"
     y1="153.92101"
     x2="166.41299"
     y2="145.101"
     stroke="#ffffff"
     stroke-width="2.5"
     id="line147" />
  <line
     x1="237.978"
     y1="107.091"
     x2="231.944"
     y2="96.718002"
     stroke="#ffffff"
     stroke-width="2.5"
     id="line148" />
  <line
     x1="570.96698"
     y1="90.982002"
     x2="575.97101"
     y2="80.074997"
     stroke="#ffffff"
     stroke-width="2.5"
     id="line149" />
  <line
     x1="626.89301"
     y1="122.949"
     x2="633.75098"
     y2="113.102"
     stroke="#ffffff"
     stroke-width="2.5"
     id="line150" />
  <line
     x1="665.45099"
     y1="153.92101"
     x2="673.58698"
     y2="145.101"
     stroke="#ffffff"
     stroke-width="2.5"
     id="line151" />
  <line
     x1="694.42401"
     y1="183.91701"
     x2="703.521"
     y2="176.091"
     stroke="#ffffff"
     stroke-width="2.5"
     id="line152" />
  <line
     x1="734.67499"
     y1="241.049"
     x2="745.10699"
     y2="235.117"
     stroke="#ffffff"
     stroke-width="2.5"
     id="line153" />
  <line
     x1="748.64502"
     y1="268.22299"
     x2="759.539"
     y2="263.19101"
     stroke="#ffffff"
     stroke-width="2.5"
     id="line154" />
  <line
     x1="759.54602"
     y1="294.48999"
     x2="770.80103"
     y2="290.32999"
     stroke="#ffffff"
     stroke-width="2.5"
     id="line155" />
  <line
     x1="767.87701"
     y1="319.87"
     x2="779.40802"
     y2="316.55099"
     stroke="#ffffff"
     stroke-width="2.5"
     id="line156" />
  <line
     x1="778.25098"
     y1="368.034"
     x2="790.12598"
     y2="366.31201"
     stroke="#ffffff"
     stroke-width="2.5"
     id="line157" />
  <line
     x1="780.82501"
     y1="390.85101"
     x2="792.78601"
     y2="389.88501"
     stroke="#ffffff"
     stroke-width="2.5"
     id="line158" />
  <line
     x1="781.92902"
     y1="412.84799"
     x2="793.927"
     y2="412.61099"
     stroke="#ffffff"
     stroke-width="2.5"
     id="line159" />
  <line
     x1="781.72803"
     y1="434.039"
     x2="793.71899"
     y2="434.504"
     stroke="#ffffff"
     stroke-width="2.5"
     id="line160" />
  <line
     x1="777.93903"
     y1="474.07001"
     x2="789.80499"
     y2="475.862"
     stroke="#ffffff"
     stroke-width="2.5"
     id="line161" />
  <line
     x1="774.57501"
     y1="492.94101"
     x2="786.32898"
     y2="495.35901"
     stroke="#ffffff"
     stroke-width="2.5"
     id="line162" />
  <line
     x1="770.35797"
     y1="511.069"
     x2="781.97198"
     y2="514.08801"
     stroke="#ffffff"
     stroke-width="2.5"
     id="line163" />
  <line
     x1="765.367"
     y1="528.46997"
     x2="776.815"
     y2="532.06598"
     stroke="#ffffff"
     stroke-width="2.5"
     id="line164" />
  <line
     x1="753.34802"
     y1="561.14899"
     x2="764.39801"
     y2="565.828"
     stroke="#ffffff"
     stroke-width="2.5"
     id="line165" />
  <line
     x1="746.44397"
     y1="576.45502"
     x2="757.26501"
     y2="581.64203"
     stroke="#ffffff"
     stroke-width="2.5"
     id="line166" />
  <line
     x1="739.01599"
     y1="591.09302"
     x2="749.591"
     y2="596.76501"
     stroke="#ffffff"
     stroke-width="2.5"
     id="line167" />
  <line
     x1="731.11298"
     y1="605.07501"
     x2="741.42603"
     y2="611.211"
     stroke="#ffffff"
     stroke-width="2.5"
     id="line168" />
  <line
     x1="714.05499"
     y1="631.13"
     x2="723.802"
     y2="638.12903"
     stroke="#ffffff"
     stroke-width="2.5"
     id="line169" />
  <line
     x1="704.979"
     y1="643.229"
     x2="714.42499"
     y2="650.62903"
     stroke="#ffffff"
     stroke-width="2.5"
     id="line170" />
  <line
     x1="695.58502"
     y1="654.72699"
     x2="704.72101"
     y2="662.508"
     stroke="#ffffff"
     stroke-width="2.5"
     id="line171" />
  <line
     x1="685.90698"
     y1="665.63702"
     x2="694.72101"
     y2="673.78003"
     stroke="#ffffff"
     stroke-width="2.5"
     id="line172" />
  <text
     x="239.4646"
     y="596.97888"
     text-anchor="middle"
     font-family="Arial, Helvetica, sans-serif"
     font-size="26.1269px"
     fill="#f3f4f6"
     id="text173"
     transform="scale(0.8490323,1.1778115)"
     style="stroke-width:1.45149">kW</text>
  <g
     id="NUMS_outward"
     transform="matrix(1.15,0,0,1.15,-63,-63)">
    <text
       x="235.27003"
       y="616.72998"
       text-anchor="middle"
       dominant-baseline="middle"
       font-family="Arial, Helvetica, sans-serif"
       font-size="48px"
       fill="#ffffff"
       id="text122">-4</text>
    <text
       x="180.6506"
       y="550.14587"
       text-anchor="middle"
       dominant-baseline="middle"
       font-family="Arial, Helvetica, sans-serif"
       font-size="48px"
       fill="#ffffff"
       id="text123">-3</text>
    <text
       x="155.01349"
       y="448.15848"
       text-anchor="middle"
       dominant-baseline="middle"
       font-family="Arial, Helvetica, sans-serif"
       font-size="48px"
       fill="#ffffff"
       id="text124">-2</text>
    <text
       x="173.42793"
       y="317.81699"
       text-anchor="middle"
       dominant-baseline="middle"
       font-family="Arial, Helvetica, sans-serif"
       font-size="48px"
       fill="#ffffff"
       id="text125">-1</text>
    <text
       x="422.98135"
       y="157.72049"
       text-anchor="middle"
       dominant-baseline="middle"
       font-family="Arial, Helvetica, sans-serif"
       font-size="48px"
       fill="#ffffff"
       id="text126">0</text>
    <text
       x="642.46521"
       y="268.83249"
       text-anchor="middle"
       dominant-baseline="middle"
       font-family="Arial, Helvetica, sans-serif"
       font-size="48px"
       fill="#ffffff"
       id="text127">1</text>
    <text
       x="682.98529"
       y="360.42673"
       text-anchor="middle"
       dominant-baseline="middle"
       font-family="Arial, Helvetica, sans-serif"
       font-size="48px"
       fill="#ffffff"
       id="text128">2</text>
    <text
       x="691.98029"
       y="455.11499"
       text-anchor="middle"
       dominant-baseline="middle"
       font-family="Arial, Helvetica, sans-serif"
       font-size="48px"
       fill="#ffffff"
       id="text129">3</text>
    <text
       x="676.65381"
       y="519.63013"
       text-anchor="middle"
       dominant-baseline="middle"
       font-family="Arial, Helvetica, sans-serif"
       font-size="48px"
       fill="#ffffff"
       id="text130">4</text>
    <text
       x="652.54987"
       y="570.39832"
       text-anchor="middle"
       dominant-baseline="middle"
       font-family="Arial, Helvetica, sans-serif"
       font-size="48px"
       fill="#ffffff"
       id="text131">5</text>
    <text
       x="610.71759"
       y="614.75482"
       text-anchor="middle"
       dominant-baseline="middle"
       font-family="Arial, Helvetica, sans-serif"
       font-size="48px"
       fill="#ffffff"
       id="text132">6</text>
    <text
       x="527.02014"
       y="172.12718"
       font-size="24px"
       text-anchor="middle"
       dominant-baseline="middle"
       fill="#cbd5e1"
       id="text174">0.2</text>
    <text
       x="284.03577"
       y="188.06506"
       font-size="24px"
       text-anchor="middle"
       dominant-baseline="middle"
       fill="#cbd5e1"
       id="text175">-0.2</text>
    <text
       x="574.92487"
       y="197.04097"
       font-size="24px"
       text-anchor="middle"
       dominant-baseline="middle"
       fill="#cbd5e1"
       id="text176">0.4</text>
    <text
       x="234.15588"
       y="222.97885"
       font-size="24px"
       text-anchor="middle"
       dominant-baseline="middle"
       fill="#cbd5e1"
       id="text177">-0.4</text>
    <text
       x="599.59088"
       y="222.38661"
       font-size="24px"
       text-anchor="middle"
       dominant-baseline="middle"
       fill="#cbd5e1"
       id="text178">0.6</text>
    <text
       x="209.41528"
       y="253.39282"
       font-size="24px"
       text-anchor="middle"
       dominant-baseline="middle"
       fill="#cbd5e1"
       id="text179">-0.6</text>
    <text
       x="619.15179"
       y="243.20387"
       font-size="24px"
       text-anchor="middle"
       dominant-baseline="middle"
       fill="#cbd5e1"
       id="text180">0.8</text>
    <text
       x="189.89166"
       y="283.22873"
       font-size="24px"
       text-anchor="middle"
       dominant-baseline="middle"
       fill="#cbd5e1"
       id="text181">-0.8</text>
  </g>
</svg>
